<?xml version="1.0" standalone="no"?><svg xmlns="http://www.w3.org/2000/svg" viewBox="0 0 1440 320"><path fill="#f3f4f5" fill-opacity="1" d="M0,288L17.1,256C34.3,224,69,160,103,144C137.1,128,171,160,206,154.7C240,149,274,107,309,117.3C342.9,128,377,192,411,224C445.7,256,480,256,514,240C548.6,224,583,192,617,165.3C651.4,139,686,117,720,133.3C754.3,149,789,203,823,186.7C857.1,171,891,85,926,53.3C960,21,994,43,1029,64C1062.9,85,1097,107,1131,112C1165.7,117,1200,107,1234,117.3C1268.6,128,1303,160,1337,192C1371.4,224,1406,256,1423,272L1440,288L1440,320L1422.9,320C1405.7,320,1371,320,1337,320C1302.9,320,1269,320,1234,320C1200,320,1166,320,1131,320C1097.1,320,1063,320,1029,320C994.3,320,960,320,926,320C891.4,320,857,320,823,320C788.6,320,754,320,720,320C685.7,320,651,320,617,320C582.9,320,549,320,514,320C480,320,446,320,411,320C377.1,320,343,320,309,320C274.3,320,240,320,206,320C171.4,320,137,320,103,320C68.6,320,34,320,17,320L0,320Z"></path></svg>